Coordinates
version=1
nRows=9
nColumns=42
inDegrees=yes

Units are S.I. units (second, meters, Newtons, ...)
If the header above contains a line with 'inDegrees', this indicates whether rotational values are in degrees (yes) or radians (no).

endheader
time	pelvis_tilt	pelvis_list	pelvis_rotation	pelvis_tx	pelvis_ty	pelvis_tz	hip_flexion_r	hip_adduction_r	hip_rotation_r	knee_angle_r	knee_adduction_r	knee_angle_r_beta	ankle_angle_r	subtalar_angle_r	mtp_angle_r	hip_flexion_l	hip_adduction_l	hip_rotation_l	knee_angle_l	knee_adduction_l	knee_angle_l_beta	ankle_angle_l	subtalar_angle_l	mtp_angle_l	lumbar_extension	lumbar_bending	lumbar_rotation	arm_flex_r	arm_add_r	arm_rot_r	elbow_flex_r	pro_sup_r	wrist_flex_r	wrist_dev_r	arm_flex_l	arm_add_l	arm_rot_l	elbow_flex_l	pro_sup_l	wrist_flex_l	wrist_dev_l
      0.40000000	     12.36280336	      2.89365142	      4.20172423	     -0.64559884	      0.92345837	     -0.22357279	    -25.89759679	      6.86630117	    -24.42768296	      1.27258491	     -1.95154695	      0.02221080	     21.99879711	     16.61437735	     -8.94121762	     17.02007202	      5.37653149	    -33.63447929	     16.43308405	     -9.44287501	      0.28681142	     16.88917553	     36.88487778	     -8.94121762	    -43.11525104	      0.04967103	      0.47233476	      4.55976480	    -12.30916703	      5.53217852	     41.16791208	     90.00000001	      0.00000000	      0.00000000	     -4.89428257	    -10.06764027	     16.75588223	     46.14239261	     90.00000001	      0.00000000	      0.00000000
      0.41000000	     12.46089475	      2.72589750	      4.13513535	     -0.63860041	      0.92182985	     -0.22394554	    -26.59562864	      7.00364111	    -24.44683223	      1.17765847	     -1.86981530	      0.02055402	     22.19974596	     16.69326596	     -8.93542425	     17.05051783	      5.41856415	    -33.43661027	     16.71803534	     -9.69084158	      0.29178476	     16.90275594	     36.87084819	     -8.93542425	    -43.11094477	      0.02871036	      0.56290758	      4.40675651	    -12.25034806	      5.58870623	     41.04138934	     90.00000001	      0.00000000	      0.00000000	     -4.93119044	    -10.05939254	     16.76426602	     46.06134486	     90.00000001	      0.00000000	      0.00000000
      0.42000000	     12.53447910	      2.57554801	      3.99425535	     -0.63138770	      0.92018660	     -0.22415447	    -27.21915450	      7.10009592	    -24.42334513	      1.17692406	     -1.84221209	      0.02054120	     22.36609459	     16.76795909	     -8.93088291	     17.05430588	      5.46245014	    -33.11443100	     17.10099480	     -9.96291695	      0.29846866	     16.83426495	     36.75297345	     -8.93088291	    -43.06257118	     -0.09555412	      0.68067468	      4.20857639	    -12.19090627	      5.64447931	     40.90036986	     90.00000001	      0.00000000	      0.00000000	     -4.98673725	    -10.04463021	     16.76353677	     45.98618069	     90.00000001	      0.00000000	      0.00000000
      0.43000000	     12.49902158	      2.32102819	      3.96393718	     -0.62420932	      0.91828966	     -0.22457632	    -27.73349339	      7.32817195	    -24.27854166	      1.12183509	     -1.80558929	      0.01957972	     22.80195573	     17.26212219	     -8.89555096	     17.40533737	      5.30536670	    -32.50265161	     18.16979965	    -10.23356700	      0.31712283	     16.64971208	     35.75025570	     -8.89555096	    -42.88374874	     -0.04109457	      0.71833300	      4.08072399	    -12.11701239	      5.84328596	     40.65785956	     90.00000001	      0.00000000	      0.00000000	     -5.07346361	    -10.00968743	     16.76328625	     45.82159908	     90.00000001	      0.00000000	      0.00000000
      0.44000000	     12.55664054	      2.20503027	      3.78523103	     -0.61681755	      0.91680403	     -0.22492270	    -28.29726247	      7.32359934	    -24.07499426	      1.21267932	     -1.77891597	      0.02116525	     23.09841288	     17.41301149	     -8.87568834	     17.43262025	      5.36233239	    -31.86829124	     18.91358726	    -10.52352646	      0.33010437	     16.15147140	     34.99852330	     -8.87568834	    -42.81499606	     -0.19476909	      0.81459649	      3.91439214	    -12.04658797	      5.91676773	     40.44501683	     90.00000001	      0.00000000	      0.00000000	     -5.12664333	     -9.99457598	     16.74532215	     45.65035302	     90.00000001	      0.00000000	      0.00000000
      0.45000000	     12.53708454	      2.09329206	      3.63356726	     -0.60956772	      0.91541722	     -0.22531744	    -28.68294960	      7.39923209	    -23.73015530	      1.38560996	     -1.97725808	      0.02418346	     23.30648025	     17.39987501	     -8.80562444	     17.43597498	      5.57245936	    -30.34615194	     19.57665554	    -10.68313136	      0.34167710	     15.45909719	     32.67353765	     -8.80562444	    -42.69664988	     -0.35256459	      0.88566271	      3.80054879	    -11.92562838	      5.97395744	     40.15224793	     90.00000001	      0.00000000	      0.00000000	     -5.14756717	     -9.94815875	     16.68343204	     45.43742866	     90.00000001	      0.00000000	      0.00000000
      0.46000000	     12.58500747	      2.04137164	      3.31781483	     -0.60195546	      0.91430603	     -0.22551133	    -29.03315880	      7.29210868	    -23.50507449	      1.81582026	     -2.18258158	      0.03169204	     23.36646514	     17.38068964	     -8.79868156	     17.33081249	      5.70511455	    -29.76129969	     20.15933837	    -11.03945225	      0.35184683	     15.09323248	     32.38879673	     -8.79868156	    -42.62722696	     -0.66094734	      1.05886179	      3.57055296	    -11.83872651	      6.01025012	     40.01253625	     90.00000001	      0.00000000	      0.00000000	     -5.23788927	     -9.93930286	     16.66928994	     45.33435496	     90.00000001	      0.00000000	      0.00000000
      0.47000000	     12.47258533	      2.02453077	      3.20035072	     -0.59501216	      0.91335734	     -0.22617170	    -29.19932595	      7.26183380	    -22.72453963	      2.18722460	     -2.43850229	      0.03817427	     23.67487243	     16.63292408	     -8.71039080	     17.29736334	      6.14031584	    -27.04330590	     20.87714840	    -10.82551765	      0.36437498	     13.32606319	     27.08628734	     -8.71039080	    -42.48637480	     -0.87810465	      1.00046407	      3.62032269	    -11.63273184	      5.94581859	     39.52014560	     90.00000001	      0.00000000	      0.00000000	     -5.13116294	     -9.89144660	     16.62963818	     44.93316218	     90.00000001	      0.00000000	      0.00000000
      0.48000000	     12.48565913	      2.01414524	      2.83638039	     -0.58753310	      0.91272837	     -0.22636620	    -29.31531906	      7.04778239	    -22.31386642	      2.98291200	     -2.70374782	      0.05206164	     23.95706357	     16.33591863	     -8.68593129	     17.24498843	      6.17267760	    -26.43145717	     21.72332223	    -10.92674896	      0.37914350	     12.17676318	     25.59180127	     -8.68593129	    -42.41650561	     -1.24948560	      1.14680052	      3.51679331	    -11.50479490	      5.98407703	     39.18021608	     90.00000001	      0.00000000	      0.00000000	     -5.12073082	     -9.86946249	     16.64481965	     44.64501227	     90.00000001	      0.00000000	      0.00000000
